<?xml version="1.0" encoding="utf-8"?>
<!-- Generator: Adobe Illustrator 15.0.2, SVG Export Plug-In . SVG Version: 6.00 Build 0)  -->
<!DOCTYPE svg PUBLIC "-//W3C//DTD SVG 1.1//EN" "http://www.w3.org/Graphics/SVG/1.1/DTD/svg11.dtd">
<svg version="1.1" id="Layer_1" xmlns="http://www.w3.org/2000/svg" xmlns:xlink="http://www.w3.org/1999/xlink" x="0px" y="0px"
	 width="4115.08px" height="1200px" viewBox="0 0 4115.08 1200" enable-background="new 0 0 4115.08 1200" xml:space="preserve">
<g id="CodeRef">
	<g>
		<path fill="#1DBB89" d="M1700.256,491.742c-9.767-15.471-21.676-28.452-35.718-38.934c-14.054-10.47-29.534-18.45-46.435-23.931
			c-16.91-5.469-34.646-8.215-53.22-8.215c-33.819,0-62.864,6.43-87.151,19.288c-24.288,12.857-44.18,29.892-59.649,51.077
			c-15.481,21.196-26.911,45.127-34.289,71.793c-7.39,26.677-11.072,54.057-11.072,82.15c0,27.626,3.685,54.896,11.072,81.796
			c7.378,26.91,18.808,50.965,34.289,72.149c15.471,21.196,35.36,38.218,59.649,51.077c24.287,12.857,53.332,19.287,87.151,19.287
			c23.81,0,45.239-4.286,64.292-12.858c19.043-8.571,35.473-20.235,49.291-35.004c13.809-14.756,25.004-32.022,33.575-51.791
			c8.572-19.757,14.042-41.076,16.431-63.936h48.576c-3.337,31.433-10.715,59.771-22.145,85.01
			c-11.43,25.248-26.197,46.679-44.291,64.292c-18.104,17.625-39.412,31.197-63.937,40.719
			c-24.532,9.521-51.791,14.287-81.794,14.287c-40.004,0-75.131-7.267-105.367-21.788c-30.25-14.521-55.363-33.932-75.365-58.221
			c-20.002-24.288-35.004-52.383-45.006-84.294c-10-31.901-15.002-65.478-15.002-100.727c0-35.237,5.002-68.812,15.002-100.725
			c10.002-31.901,25.004-60.118,45.006-84.652c20.002-24.522,45.115-44.045,75.365-58.578
			c30.236-14.521,65.363-21.788,105.367-21.788c24.288,0,47.975,3.572,71.079,10.715c23.095,7.144,44.045,17.749,62.863,31.79
			c18.809,14.053,34.524,31.319,47.147,51.791c12.612,20.481,20.594,44.056,23.932,70.722h-48.576
			C1717.044,524.727,1710.012,507.224,1700.256,491.742z"/>
		<path fill="#1DBB89" d="M2073.148,536.39c21.666,10.481,39.883,24.534,54.648,42.147c14.757,17.625,25.952,38.219,33.575,61.792
			c7.612,23.574,11.43,48.7,11.43,75.365c0,26.678-3.817,51.792-11.43,75.364c-7.623,23.574-18.818,44.18-33.575,61.793
			c-14.768,17.624-32.982,31.556-54.648,41.79c-21.676,10.235-46.556,15.358-74.649,15.358c-28.104,0-52.985-5.123-74.651-15.358
			c-21.676-10.234-39.893-24.166-54.647-41.79c-14.767-17.613-25.964-38.219-33.575-61.793c-7.623-23.572-11.43-48.688-11.43-75.364
			c0-26.665,3.807-51.791,11.43-75.365c7.612-23.573,18.809-44.167,33.575-61.792c14.756-17.613,32.973-31.666,54.647-42.147
			c21.666-10.47,46.547-15.716,74.651-15.716C2026.594,520.674,2051.475,525.92,2073.148,536.39z M1942.064,572.107
			c-16.196,9.053-29.646,20.963-40.361,35.719c-10.716,14.768-18.819,31.555-24.289,50.361c-5.48,18.819-8.215,37.984-8.215,57.507
			c0,19.532,2.734,38.697,8.215,57.507c5.47,18.818,13.573,35.605,24.289,50.361c10.715,14.768,24.165,26.678,40.361,35.719
			c16.185,9.053,35.004,13.572,56.435,13.572s40.238-4.521,56.435-13.572c16.186-9.041,29.646-20.951,40.361-35.719
			c10.715-14.756,18.809-31.543,24.288-50.361c5.47-18.81,8.216-37.975,8.216-57.507c0-19.521-2.746-38.688-8.216-57.507
			c-5.479-18.808-13.573-35.595-24.288-50.361c-10.716-14.756-24.177-26.666-40.361-35.719
			c-16.195-9.041-35.004-13.572-56.435-13.572S1958.249,563.067,1942.064,572.107z"/>
		<path fill="#1DBB89" d="M2522.84,900v-70.008h-1.429c-4.767,11.91-11.787,22.859-21.074,32.861
			c-9.286,10-19.89,18.461-31.789,25.358c-11.909,6.909-24.646,12.256-38.218,16.073c-13.573,3.807-27.034,5.715-40.361,5.715
			c-28.104,0-52.506-5.123-73.223-15.357c-20.716-10.235-37.982-24.289-51.791-42.147c-13.818-17.859-24.054-38.576-30.718-62.149
			c-6.675-23.573-10.001-48.453-10.001-74.65c0-26.187,3.326-51.076,10.001-74.65c6.664-23.574,16.898-44.291,30.718-62.148
			c13.809-17.859,31.075-32.023,51.791-42.506c20.717-10.47,45.117-15.716,73.223-15.716c13.807,0,27.258,1.675,40.361,5
			c13.093,3.337,25.359,8.461,36.789,15.359c11.431,6.909,21.543,15.358,30.36,25.36c8.808,10,15.594,21.676,20.358,35.003h1.43
			V389.946h45.004V900H2522.84z M2276.027,772.486c4.521,18.818,11.665,35.605,21.432,50.361
			c9.755,14.769,22.257,26.789,37.504,36.075c15.235,9.287,33.575,13.931,55.006,13.931c23.809,0,43.934-4.644,60.363-13.931
			c16.431-9.286,29.758-21.308,40.004-36.075c10.235-14.756,17.614-31.543,22.146-50.361c4.521-18.809,6.785-37.738,6.785-56.792
			c0-19.042-2.266-37.974-6.785-56.791c-4.531-18.81-11.91-35.597-22.146-50.363c-10.246-14.756-23.573-26.788-40.004-36.075
			s-36.556-13.93-60.363-13.93c-21.431,0-39.771,4.643-55.006,13.93c-15.247,9.287-27.749,21.319-37.504,36.075
			c-9.768,14.768-16.91,31.555-21.432,50.363c-4.531,18.817-6.786,37.749-6.786,56.791
			C2269.241,734.748,2271.496,753.679,2276.027,772.486z"/>
		<path fill="#1DBB89" d="M2683.206,778.201c4.521,17.391,11.787,32.982,21.788,46.791c10.001,13.818,22.614,25.248,37.861,34.289
			c15.236,9.053,33.574,13.572,55.006,13.572c32.861,0,58.578-8.571,77.15-25.717c18.573-17.146,31.433-40.005,38.575-68.578h45.005
			c-9.531,41.912-27.033,74.293-52.506,97.152C2880.604,898.57,2844.527,910,2797.859,910c-29.055,0-54.18-5.123-75.364-15.357
			c-21.196-10.235-38.464-24.289-51.791-42.147c-13.339-17.859-23.218-38.576-29.646-62.149c-6.43-23.573-9.645-48.453-9.645-74.65
			c0-24.288,3.215-48.098,9.645-71.437c6.429-23.329,16.308-44.168,29.646-62.507c13.327-18.328,30.595-33.095,51.791-44.291
			c21.186-11.184,46.311-16.788,75.364-16.788c29.523,0,54.762,5.96,75.724,17.859c20.95,11.91,37.973,27.503,51.077,46.791
			c13.093,19.288,22.502,41.433,28.217,66.436c5.715,25.002,8.093,50.362,7.144,76.079H2676.42
			C2676.42,744.035,2678.675,760.822,2683.206,778.201z M2906.087,640.688c-5.479-15.717-13.215-29.646-23.217-41.791
			c-10.001-12.144-22.146-21.898-36.433-29.288c-14.287-7.378-30.482-11.073-48.576-11.073c-18.573,0-35.004,3.693-49.291,11.073
			c-14.287,7.389-26.432,17.145-36.434,29.288c-10.001,12.146-17.98,26.197-23.931,42.147c-5.961,15.962-9.89,32.269-11.787,48.935
			h238.597C2914.537,672.833,2911.557,656.402,2906.087,640.688z"/>
		<path fill="#1DBB89" d="M3262.909,389.946c20.95,0,40.83,2.623,59.648,7.857c18.809,5.246,35.238,13.216,49.291,23.932
			c14.041,10.715,25.237,24.534,33.575,41.433c8.326,16.91,12.501,36.79,12.501,59.649c0,32.392-8.338,60.485-25.003,84.294
			c-16.676,23.819-41.434,39.056-74.293,45.72v1.429c16.664,2.39,30.472,6.786,41.434,13.217
			c10.949,6.429,19.879,14.645,26.787,24.646c6.898,10.001,11.899,21.554,15.002,34.646c3.093,13.104,5.112,27.27,6.072,42.505
			c0.469,8.571,0.948,19.054,1.43,31.433c0.469,12.39,1.429,24.891,2.856,37.504c1.429,12.624,3.685,24.533,6.786,35.718
			c3.092,11.195,7.256,19.892,12.502,26.074h-53.577c-2.856-4.755-5.124-10.593-6.787-17.502
			c-1.674-6.897-2.856-14.042-3.571-21.431c-0.715-7.378-1.316-14.646-1.785-21.788c-0.48-7.145-0.961-13.327-1.43-18.573
			c-0.96-18.094-2.5-36.075-4.644-53.935s-6.675-33.811-13.572-47.862c-6.91-14.042-16.911-25.359-30.004-33.932
			c-13.104-8.573-31.074-12.379-53.935-11.432H3077.89V900h-48.577V389.946H3262.909z M3259.338,632.114
			c14.756,0,28.809-2.255,42.146-6.786c13.327-4.521,25.002-11.073,35.004-19.646c10-8.572,17.971-18.931,23.932-31.075
			c5.949-12.145,8.93-26.073,8.93-41.791c0-31.432-9.053-56.188-27.146-74.293c-18.104-18.093-45.719-27.146-82.864-27.146H3077.89
			v200.735L3259.338,632.114L3259.338,632.114z"/>
		<path fill="#1DBB89" d="M3530.432,778.201c4.521,17.391,11.787,32.982,21.788,46.791c10.001,13.818,22.614,25.248,37.861,34.289
			c15.236,9.053,33.575,13.572,55.006,13.572c32.861,0,58.578-8.571,77.151-25.717s31.432-40.005,38.575-68.578h45.005
			c-9.532,41.912-27.034,74.293-52.506,97.152C3727.83,898.57,3691.754,910,3645.086,910c-29.055,0-54.18-5.123-75.365-15.357
			c-21.195-10.235-38.464-24.289-51.791-42.147c-13.339-17.859-23.217-38.576-29.646-62.149c-6.431-23.573-9.646-48.453-9.646-74.65
			c0-24.288,3.215-48.098,9.646-71.437c6.429-23.329,16.307-44.168,29.646-62.507c13.327-18.328,30.596-33.095,51.791-44.291
			c21.187-11.184,46.312-16.788,75.365-16.788c29.523,0,54.761,5.96,75.723,17.859c20.951,11.91,37.973,27.503,51.077,46.791
			c13.093,19.288,22.502,41.433,28.217,66.436c5.716,25.002,8.093,50.362,7.145,76.079h-283.603
			C3523.646,744.035,3525.9,760.822,3530.432,778.201z M3753.312,640.688c-5.48-15.717-13.216-29.646-23.218-41.791
			c-10.001-12.144-22.145-21.898-36.432-29.288c-14.287-7.378-30.483-11.073-48.577-11.073c-18.572,0-35.004,3.693-49.291,11.073
			c-14.287,7.389-26.431,17.145-36.433,29.288c-10.001,12.146-17.981,26.197-23.931,42.147
			c-5.961,15.962-9.891,32.269-11.787,48.935h238.597C3761.763,672.833,3758.782,656.402,3753.312,640.688z"/>
		<path fill="#1DBB89" d="M3937.26,569.25V900h-45.005V569.25h-62.864v-37.861h62.864v-33.574c0-15.717,1.184-30.238,3.571-43.576
			c2.378-13.327,6.898-24.758,13.573-34.29c6.663-9.521,15.827-16.899,27.503-22.146c11.664-5.235,26.543-7.858,44.646-7.858
			c6.663,0,12.858,0.246,18.573,0.714c5.715,0.479,12.146,1.194,19.288,2.143v38.576c-6.195-0.949-11.91-1.786-17.145-2.5
			c-5.246-0.714-10.481-1.072-15.718-1.072c-12.39,0-21.909,1.909-28.573,5.716c-6.676,3.816-11.554,8.929-14.646,15.357
			c-3.103,6.429-4.889,13.93-5.356,22.502c-0.479,8.572-0.715,17.859-0.715,27.86v32.146h72.864v37.861h-72.862V569.25z"/>
	</g>
</g>
<g id="Grid">
	<circle fill="#FFFFFF" cx="599.999" cy="600" r="500"/>
	<circle fill="#1DBB89" cx="599.999" cy="600" r="475"/>
	<circle fill="#FFFFFF" cx="375" cy="400" r="50"/>
	<circle fill="#FFFFFF" cx="599.999" cy="400" r="50"/>
	<circle fill="#FFFFFF" cx="825.001" cy="400" r="50"/>
	<circle fill="#FFFFFF" cx="375" cy="600" r="50"/>
	<circle fill="#FFFFFF" cx="599.999" cy="600" r="50"/>
	<circle fill="#FFFFFF" cx="825.001" cy="600" r="50"/>
	<circle fill="#FFFFFF" cx="375" cy="800" r="50"/>
	<circle fill="#FFFFFF" cx="600" cy="800" r="50"/>
	<circle fill="#FFFFFF" cx="825.001" cy="800" r="50"/>
</g>
</svg>
